<svg width="483.7" height="483.3" xmlns="http://www.w3.org/2000/svg">
 <style type="text/css">.st0{fill:#2F455C;} .st1{fill:#34F5C6;} .st2{fill:#0EB095;} .st3{fill:#21D0B3;}</style>

 <g>
  <title>background</title>
  <rect fill="none" id="canvas_background" height="602" width="802" y="-1" x="-1"/>
 </g>
 <g>
  <title>Layer 1</title>
  <path id="svg_2" d="m157.9,287.18011l173,0.2c19.9,0 36,15.7 36,35.1l0,0c0,19.4 -16.2,35.1 -36,35l-173,-0.2c-19.9,0 -36,-15.7 -36,-35.1l0,0c0,-19.3 16.2,-35 36,-35z" class="st1"/>
  <path id="svg_3" d="m155.4,107.53068l173,0.2c19.9,0 36,16.2 36,36l0,0c0,19.9 -16.2,36 -36,36l-173,-0.2c-19.9,0 -36,-16.2 -36,-36l0,0c0,-19.9 16.1,-36 36,-36z" class="st2"/>
  <path stroke="null" id="svg_4" d="m133.5,289.41351l170.8,-170.16403c14.6,-14.55776 37.4,-13.58724 50.9,2.15671l0,0c13.5,15.74395 12.6,40.33038 -2,54.88814l-170.9,170.05619c-14.6,14.55776 -37.4,13.58724 -50.9,-2.15671l0,0c-13.4,-15.74395 -12.5,-40.33038 2.1,-54.78031z" class="st3"/>
 </g>
</svg>